<svg xmlns="http://www.w3.org/2000/svg" viewBox="0 0 640 420" role="img" aria-labelledby="title desc">
  <title id="title">Make-A-Wish Guam and CNMI</title>
  <desc id="desc">Make-A-Wish wordmark treatment on a Make-A-Wish blue background.</desc>
  <rect width="640" height="420" rx="0" fill="#0057B8"/>
  <circle cx="493" cy="110" r="72" fill="#ffffff" opacity=".10"/>
  <circle cx="110" cy="318" r="120" fill="#ffffff" opacity=".08"/>
  <path d="M451 115c44-32 82-45 112-39-24 16-46 38-66 66 20 4 39 11 57 22-36 5-72 1-108-12-23 20-48 37-75 49 18-25 35-53 50-84-21-17-42-29-63-37 31-7 62 5 93 35z" fill="#ffffff" opacity=".94"/>
  <path d="M505 69l13 22 25 5-17 19 3 25-23-10-23 11 2-26-18-18 25-6 13-22z" fill="#ffffff"/>
  <text x="72" y="220" font-family="Georgia, 'Times New Roman', serif" font-size="76" font-weight="500" fill="#ffffff">Make-A-Wish</text>
  <text x="78" y="282" font-family="Inter, system-ui, -apple-system, BlinkMacSystemFont, 'Segoe UI', sans-serif" font-size="27" font-weight="800" letter-spacing="6" fill="#DCEBFF">GUAM AND CNMI</text>
</svg>
